<svg xmlns="http://www.w3.org/2000/svg" version="1.1" xmlns:xlink="http://www.w3.org/1999/xlink" xmlns:svgjs="http://svgjs.dev/svgjs" width="1440" height="560" preserveAspectRatio="none" viewBox="0 0 1440 560"><g mask="url(&quot;#SvgjsMask1050&quot;)" fill="none"><path d="M1536 560L0 560 L0 349.18Q47.04 276.22, 120 323.25Q138.44 269.69, 192 288.12Q234.49 258.61, 264 301.09Q305.68 222.76, 384 264.44Q456.94 217.38, 504 290.31Q558.37 272.68, 576 327.04Q628.64 259.68, 696 312.32Q710.05 254.38, 768 268.43Q837.12 217.55, 888 286.67Q934.15 260.82, 960 306.97Q963.92 238.89, 1032 242.82Q1119.83 258.64, 1104 346.47Q1163.94 286.41, 1224 346.35Q1229.42 279.77, 1296 285.2Q1341.88 211.08, 1416 256.96Q1507.91 228.88, 1536 320.79z" fill="#182f5d"></path><path d="M1536 560L0 560 L0 376.43Q61.94 366.37, 72 428.31Q93.16 377.47, 144 398.62Q165.2 347.82, 216 369.03Q267.85 300.88, 336 352.72Q402.76 347.49, 408 414.25Q446.53 332.78, 528 371.31Q598.14 321.45, 648 391.59Q693.62 365.2, 720 410.82Q722.67 341.49, 792 344.16Q821.07 301.23, 864 330.3Q914.78 309.08, 936 359.86Q989.3 293.16, 1056 346.46Q1144.15 314.62, 1176 402.77Q1200.78 307.55, 1296 332.34Q1376.6 292.93, 1416 373.53Q1467.47 305, 1536 356.48z" fill="#25467d"></path><path d="M1512 560L0 560 L0 421.24Q100.94 402.18, 120 503.11Q143.96 455.07, 192 479.03Q223.03 390.06, 312 421.09Q356.41 393.5, 384 437.9Q435.36 417.25, 456 468.61Q468.22 408.83, 528 421.04Q569.76 390.81, 600 432.57Q669.13 381.7, 720 450.84Q760.77 371.61, 840 412.38Q870.75 371.13, 912 401.89Q1002.38 372.27, 1032 462.66Q1082.8 393.46, 1152 444.26Q1172.82 393.08, 1224 413.9Q1269.65 387.55, 1296 433.21Q1369.63 434.84, 1368 508.47Q1357.81 426.28, 1440 416.09Q1470.99 375.08, 1512 406.07z" fill="#356cb1"></path><path d="M1464 560L0 560 L0 481.82Q38.82 448.64, 72 487.46Q122.09 465.55, 144 515.64Q218.24 469.88, 264 544.11Q268.64 476.75, 336 481.39Q375.37 448.76, 408 488.13Q507.4 467.53, 528 566.93Q539.33 506.25, 600 517.58Q646.56 444.14, 720 490.7Q807.18 457.88, 840 545.06Q882.12 515.17, 912 557.29Q979.73 505.01, 1032 572.74Q1059.76 480.5, 1152 508.25Q1206.21 442.46, 1272 496.66Q1342.88 447.53, 1392 518.41Q1411.71 466.13, 1464 485.84z" fill="white"></path></g><defs><mask id="SvgjsMask1050"><rect width="1440" height="560" fill="#ffffff"></rect></mask></defs></svg>
