<?xml version="1.0" encoding="utf-8"?>
<!-- Generator: Adobe Illustrator 27.2.0, SVG Export Plug-In . SVG Version: 6.00 Build 0)  -->
<svg version="1.1" id="Camada_2_00000039812546656499239000000004949862213074625456_"
	 xmlns="http://www.w3.org/2000/svg" xmlns:xlink="http://www.w3.org/1999/xlink" x="0px" y="0px" viewBox="0 0 1366 768"
	 style="enable-background:new 0 0 1366 768;" xml:space="preserve">
<style type="text/css">
	.st0{opacity:0.4;fill:#FFFFFF;enable-background:new    ;}
	.st1{opacity:0.4;fill-rule:evenodd;clip-rule:evenodd;fill:#FFFFFF;enable-background:new    ;}
	.st2{opacity:0.4;}
	.st3{fill:#FFFFFF;}
</style>
<path class="st0" d="M324.3,366.1c0,12.7,10.3,23,23,23H406c11.2,0,20.4-9.2,20.4-20.4c0-9.9-7-18.2-16.3-20c0.6-1.7,1-3.6,1-5.5
	c0-8.5-6.8-15.3-15.3-15.3c-3.2,0-6.1,0.9-8.5,2.6c-4.5-7.7-12.7-12.8-22.2-12.8c-14.1,0-25.5,11.4-25.5,25.5c0,0.4,0,0.8,0,1.3
	C330.7,347.5,324.3,356.1,324.3,366.1z"/>
<path class="st0" d="M978.8,122.6c0,12.7,10.3,23,23,23h58.7c11.2,0,20.4-9.2,20.4-20.4c0-9.9-7-18.2-16.3-20c0.6-1.7,1-3.6,1-5.5
	c0-8.5-6.8-15.3-15.3-15.3c-3.2,0-6.1,0.9-8.5,2.6c-4.5-7.7-12.7-12.8-22.2-12.8c-14.1,0-25.5,11.4-25.5,25.5c0,0.4,0,0.8,0,1.3
	C985.2,104,978.8,112.6,978.8,122.6z"/>
<path class="st0" d="M1302.4,210.6c0,18.3-14.9,33.2-33.2,33.2h-84.8c-16.2,0-29.5-13.3-29.5-29.5c0-14.3,10.2-26.2,23.6-28.9
	c-0.9-2.5-1.5-5.2-1.5-8c0-12.2,9.9-22.1,22.1-22.1c4.6,0,8.8,1.3,12.2,3.7c6.3-11.1,18.3-18.4,32-18.4c20.3,0,36.9,16.5,36.9,36.9
	c0,0.6,0,1.2,0,1.9C1293.1,183.8,1302.4,196.2,1302.4,210.6z"/>
<path class="st0" d="M258.6,633.8h-80c-11.2,0-21.7-3.9-29.4-10.9c-8.1-7.3-12.5-17.4-12.5-28.5c0-11.3,4.2-21,11.9-28
	c5.5-5.1,12.9-8.8,21.3-10.4c1.6-0.3,2.8-1.3,3.5-2.8c3-6.6,7.4-12.5,12.9-17.2c8.1-6.7,18.2-10.4,29.1-10.4
	c12.3,0,24.1,4.7,33,13.2c7.7,7.3,12.8,17,15.1,28.3c0.4,1.9,1.9,3.4,3.8,3.8c14,3.1,26.9,13.3,26.9,31c0,10.2-3.8,18.7-10.9,24.4
	C277.2,631.1,268.6,633.8,258.6,633.8z"/>
<path class="st1" d="M380.1,746.3c-8.6,0-16.6-4-21.7-10.8c-4.6,3.2-10,4.9-15.6,4.9c-15,0-27.2-12.2-27.2-27.2
	c0-13,9.3-24.2,22-26.7c0-0.4,0-0.8,0-1.2c0-11.7,9.6-21.4,21.4-21.4c3.5,0,6.9,0.8,10,2.6c5-7.8,13.6-12.6,22.9-12.6
	c9.5,0,18.2,4.9,23.2,13c0.9-0.1,1.7-0.2,2.7-0.2c11.7,0,21.4,9.6,21.4,21.4c0,1.3-0.1,2.7-0.4,4c6.3,5.1,10.1,13,10.1,21.1
	c0,15-12.2,27.2-27.2,27.2c-6.7,0-13.3-2.6-18.2-7C398.3,741.4,389.6,746.3,380.1,746.3L380.1,746.3z M380,737.8c0.4,0,0.7,0,1.1,0
	c6.7-0.4,12.6-4.2,15.5-10.2c0.2-0.5,0-1.1-0.4-1.3c-0.5-0.2-1.1,0-1.3,0.4c-2.7,5.4-7.9,8.8-13.9,9.1c-5.9,0.3-11.5-2.5-14.9-7.5
	l-4.7-7.3c-0.1-0.2-0.4-0.4-0.7-0.4c-0.3,0-0.6,0-0.8,0.2l-6.7,5.4c-5,4.1-11.7,4.8-17.7,2c-5.9-2.8-9.4-8.4-9.4-14.9
	c0-8.3,6.2-15.4,14.4-16.4l7.8-1c0.3,0,0.5-0.2,0.6-0.4c0.2-0.2,0.2-0.5,0.2-0.7l-1-7.8c-0.1-0.5-0.1-1-0.1-1.4
	c0-5.9,4.8-10.7,10.7-10.7c2,0,4.1,0.6,5.8,1.7c0.4,0.3,1.1,0.2,1.3-0.3c0.3-0.4,0.2-1-0.3-1.3c-2-1.3-4.5-2-6.9-2
	c-7,0-12.8,5.7-12.8,12.8c0,0.6,0,1.1,0.1,1.7l0.9,6.7l-6.7,0.9c-9.2,1.2-16.1,9.1-16.1,18.4c0,7.3,4.1,13.6,10.5,16.8
	c6.5,3.1,14.1,2.2,19.7-2.2l5.8-4.8l4.1,6.3C368,734.6,373.7,737.8,380,737.8L380,737.8z M421.4,731.8c2.4,0,4.7-0.4,6.9-1.3
	c7.3-2.9,11.7-9.4,11.7-17.3c0-0.5-0.4-1-1-1c-0.5,0-1,0.4-1,1c0,6.9-4.1,12.9-10.5,15.4c-6.4,2.6-13.6,1-18.3-4.1
	c-0.4-0.4-1-0.4-1.4-0.1c-0.4,0.4-0.4,1-0.1,1.4C411.3,729.7,416.2,731.8,421.4,731.8L421.4,731.8z M376.3,673.8
	c0.4,0,0.7-0.2,0.9-0.5c3-5.3,8.5-8.7,14.6-8.7c6,0,11.6,3.3,14.5,8.6c0.3,0.5,0.8,0.6,1.3,0.4c0.5-0.3,0.6-0.8,0.4-1.3
	c-3.3-5.9-9.5-9.6-16.2-9.6c-6.8,0-13.1,3.7-16.3,9.7c-0.3,0.5-0.1,1.1,0.4,1.3C376,673.8,376.1,673.8,376.3,673.8z"/>
<path class="st1" d="M1087.8,700.2c8.2,0,15.7-4,20.6-10.8c4.3,3.2,9.5,4.9,14.8,4.9c14.2,0,25.8-12.2,25.8-27.2
	c0-13-8.9-24.2-20.8-26.7c0-0.4,0-0.8,0-1.2c0-11.7-9.1-21.4-20.2-21.4c-3.4,0-6.6,0.8-9.5,2.6c-4.7-7.8-12.9-12.6-21.8-12.6
	c-9,0-17.3,4.9-22,13c-0.8-0.1-1.6-0.2-2.6-0.2c-11.1,0-20.2,9.6-20.2,21.4c0,1.3,0.1,2.7,0.4,4c-6,5.1-9.6,13-9.6,21.1
	c0,15,11.5,27.2,25.8,27.2c6.4,0,12.6-2.6,17.4-7C1070.4,695.3,1078.7,700.2,1087.8,700.2L1087.8,700.2z M1087.8,691.6
	c-0.3,0-0.7,0-1,0c-6.4-0.4-12-4.2-14.8-10.2c-0.2-0.5,0-1.1,0.4-1.3c0.5-0.2,1,0,1.2,0.4c2.6,5.4,7.6,8.8,13.2,9.1
	c5.7,0.3,11-2.5,14.1-7.5l4.5-7.3c0.1-0.2,0.4-0.4,0.6-0.4c0.3,0,0.5,0,0.7,0.2l6.3,5.4c4.8,4.1,11.2,4.8,16.8,2
	c5.6-2.8,9-8.4,9-14.9c0-8.3-5.9-15.4-13.7-16.4l-7.4-1c-0.2,0-0.5-0.2-0.6-0.4s-0.2-0.5-0.2-0.7l1-7.8c0.1-0.5,0.1-1,0.1-1.4
	c0-5.9-4.6-10.7-10.2-10.7c-1.9,0-3.9,0.6-5.5,1.7c-0.4,0.3-1,0.2-1.3-0.3c-0.3-0.4-0.2-1,0.3-1.3c1.9-1.3,4.3-2,6.6-2
	c6.6,0,12.1,5.7,12.1,12.8c0,0.6,0,1.1-0.1,1.7l-0.9,6.7l6.4,0.9c8.8,1.2,15.3,9.1,15.3,18.4c0,7.3-3.9,13.6-10,16.8
	c-6.2,3.1-13.4,2.2-18.8-2.2l-5.6-4.8l-3.9,6.3C1099.2,688.5,1093.8,691.6,1087.8,691.6L1087.8,691.6z M1048.5,685.8
	c-2.2,0-4.5-0.4-6.5-1.3c-6.9-2.9-11.1-9.4-11.1-17.3c0-0.5,0.4-1,0.9-1s0.9,0.4,0.9,1c0,6.9,3.9,12.9,10,15.4
	c6.1,2.6,12.9,1,17.4-4.1c0.3-0.4,0.9-0.4,1.3-0.1c0.4,0.4,0.4,1,0.1,1.4C1058,683.6,1053.4,685.8,1048.5,685.8L1048.5,685.8z
	 M1091.2,627.6c-0.3,0-0.6-0.2-0.8-0.5c-2.8-5.3-8.1-8.7-13.9-8.7c-5.7,0-11,3.3-13.8,8.6c-0.2,0.5-0.8,0.6-1.3,0.4
	c-0.4-0.3-0.6-0.8-0.4-1.3c3.1-5.9,9-9.6,15.4-9.6c6.4,0,12.5,3.7,15.5,9.7c0.2,0.5,0.1,1.1-0.4,1.3
	C1091.5,627.6,1091.4,627.6,1091.2,627.6z"/>
<g class="st2">
	<path class="st3" d="M305.5,167.5h-78c8-6.7,13-16.9,13-28.2c0-20.4-16.6-37-37-37c-1.2,0-2.6,0.1-3.8,0.2
		c-5.3-5.2-12.2-8.7-19.5-10c-0.5-0.7-1-1.4-1.5-2.1c3.3-0.6,6.5-0.7,9.9-0.4c0.5-20.9,17.8-37.8,38.8-37.8c15.2,0,29,9,35.4,22.7
		c12.7,0,24.5,6.3,31.7,16.6c3.6-1,7.3-1.6,11-1.6c21.4,0,38.8,17.4,38.8,38.8C344.4,150.1,326.9,167.5,305.5,167.5z"/>
	<path class="st3" d="M203.6,167.5h-82.9c-15.5,0-28.2-12.7-28.2-28.2s12.7-28.2,28.2-28.2c0.3,0,0.6,0,0.9,0
		c1.1-14.5,13.3-26,28.1-26c10.7,0,20.5,6.1,25.2,15.6c8.6,0.3,16.4,4.5,21.6,11.2c2.3-0.6,4.7-0.9,7-0.9
		c15.5,0,28.2,12.7,28.2,28.2C231.8,154.8,219.1,167.5,203.6,167.5z"/>
</g>
<path class="st1" d="M1131.5,460.4c18,0,32.6,14.6,32.6,32.6c0,18-14.6,32.6-32.6,32.6c-45.4,0-99.1,0-140.1,0
	c-18,0-32.6-14.6-32.6-32.6c0-13.9,8.7-25.8,21.1-30.5c-1.1-3.2-1.7-6.7-1.7-10.3c0-18,14.6-32.6,32.6-32.6c3.6,0,7.1,0.7,10.3,1.7
	c0-0.6,0-1,0-1.6c0-18,14.6-32.6,32.6-32.6c17.2,0,31.3,13.4,32.5,30.4c3.4-1.2,7.1-1.9,11-1.9c18,0,32.6,14.6,32.6,32.6
	c0,4.4-0.9,8.6-2.5,12.5C1128.7,460.5,1130.1,460.4,1131.5,460.4L1131.5,460.4z M1026.8,434.3c-8.2,0-15.6,3.3-20.8,8.5
	c-5.4,5.4-8.7,12.8-8.7,21c0,0.9,0.9,1.8,1.8,1.8c0.9,0,1.8-0.8,1.8-1.8c0-7.2,2.8-13.6,7.6-18.4c4.6-4.6,11.2-7.6,18.4-7.6
	c0.9,0,1.8-0.8,1.8-1.8C1028.6,435.1,1027.8,434.3,1026.8,434.3L1026.8,434.3z M1099.4,446.1c3,2.9,4.8,7.1,4.8,11.6
	c0,0.9,0.8,1.8,1.8,1.8c0.9,0,1.8-0.8,1.8-1.8c0-5.6-2.2-10.6-5.9-14.3c-3.7-3.6-8.7-5.9-14.3-5.9c-0.9,0-1.8,0.8-1.8,1.8
	c0,0.9,0.8,1.8,1.8,1.8C1092.3,441.2,1096.3,443,1099.4,446.1z"/>
<path class="st1" d="M-49.6,381.5c1.5,0,3.1,0.1,4.6,0.3c-1.7-4.2-2.7-8.7-2.7-13.5c0-19.4,15.7-35.1,35.1-35.1
	c4.2,0,8.2,0.7,11.9,2c1.2-18.3,16.4-32.8,35-32.8c19.4,0,35.1,15.7,35.1,35.1c0,0.6,0,1.1,0,1.7c3.5-1.1,7.3-1.8,11.1-1.8
	c19.4,0,35.1,15.7,35.1,35.1c0,3.9-0.6,7.7-1.8,11.1c13.4,5,22.8,17.9,22.8,32.9c0,19.4-15.7,35.1-35.1,35.1
	c-44.2,0-102.2,0-151.2,0c-19.4,0-35.1-15.7-35.1-35.1C-84.8,397.2-69,381.5-49.6,381.5L-49.6,381.5z M63.5,353.3
	c-1.1,0-1.9,0.9-1.9,1.9c0,1.1,0.9,1.9,1.9,1.9c7.8,0,14.8,3.2,19.8,8.2c5.1,5.1,8.2,12.1,8.2,19.8c0,1.1,0.9,1.9,1.9,1.9
	c1,0,1.9-0.9,1.9-1.9c0-8.9-3.6-16.9-9.4-22.7C80.3,356.9,72.4,353.3,63.5,353.3L63.5,353.3z M-2.3,360.8c1.1,0,1.9-0.9,1.9-1.9
	c0-1.1-0.9-1.9-1.9-1.9c-6,0-11.4,2.5-15.4,6.3c-4,4-6.3,9.4-6.3,15.4c0,1.1,0.9,1.9,1.9,1.9c1.1,0,1.9-0.9,1.9-1.9
	c0-4.9,1.9-9.4,5.2-12.6C-11.6,362.7-7.2,360.8-2.3,360.8z"/>
<path class="st1" d="M1376.7,64.6c-9.5,0-18.2-4.9-23.3-13c-4.9,4.5-11.4,7-18.2,7c-15,0-27.2-12.2-27.2-27.2
	c0-8.2,3.8-16,10.1-21.1c-0.3-1.3-0.4-2.7-0.4-4c0-11.7,9.6-21.4,21.4-21.4c0.9,0,1.7,0.1,2.7,0.2c5-8.1,13.7-13,23.2-13
	c9.3,0,17.9,4.8,22.9,12.6c3.1-1.7,6.5-2.6,10-2.6c11.7,0,21.4,9.6,21.4,21.4c0,0.4,0,0.8,0,1.2c12.7,2.5,22,13.7,22,26.7
	c0,15-12.2,27.2-27.2,27.2c-5.6,0-11-1.7-15.6-4.9C1393.3,60.6,1385.3,64.6,1376.7,64.6L1376.7,64.6z M1376.8,56
	c6.3,0,12.1-3.2,15.9-8.3l4.1-6.3l5.8,4.8c5.6,4.5,13.2,5.3,19.7,2.2c6.4-3.2,10.5-9.5,10.5-16.8c0-9.3-6.9-17.2-16.1-18.4l-6.7-0.9
	l0.9-6.7c0.1-0.6,0.1-1.1,0.1-1.7c0-7-5.7-12.8-12.8-12.8c-2.5,0-4.9,0.7-6.9,2c-0.5,0.3-0.6,0.9-0.3,1.3c0.2,0.5,0.9,0.6,1.3,0.3
	c1.7-1.1,3.8-1.7,5.8-1.7c5.9,0,10.7,4.8,10.7,10.7c0,0.4,0,0.9-0.1,1.4l-1,7.8c0,0.2,0,0.5,0.2,0.7c0.1,0.2,0.3,0.4,0.6,0.4l7.8,1
	c8.2,1,14.4,8.2,14.4,16.4c0,6.5-3.5,12.2-9.4,14.9c-5.9,2.8-12.7,2-17.7-2L1397,39c-0.2-0.2-0.5-0.2-0.8-0.2s-0.6,0.2-0.7,0.4
	l-4.7,7.3c-3.4,5-9,7.8-14.9,7.5c-6-0.3-11.2-3.7-13.9-9.1c-0.2-0.4-0.8-0.6-1.3-0.4c-0.4,0.2-0.6,0.8-0.4,1.3
	c3,6,8.8,9.8,15.5,10.2C1376.1,56,1376.4,56,1376.8,56L1376.8,56z M1335.5,50.1c5.2,0,10.1-2.1,13.7-5.9c0.3-0.4,0.3-1-0.1-1.4
	c-0.4-0.3-1-0.3-1.4,0.1c-4.7,5.1-11.9,6.6-18.3,4.1c-6.4-2.6-10.5-8.5-10.5-15.4c0-0.6-0.5-1-1-1c-0.6,0-1,0.5-1,1
	c0,7.9,4.5,14.4,11.7,17.3C1330.8,49.7,1333.1,50.1,1335.5,50.1L1335.5,50.1z M1380.9-8.1c0.5-0.2,0.7-0.8,0.4-1.3
	c-3.3-6-9.5-9.7-16.3-9.7c-6.7,0-13,3.7-16.2,9.6c-0.2,0.5-0.1,1,0.4,1.3c0.5,0.2,1,0.1,1.3-0.4c2.9-5.3,8.5-8.6,14.5-8.6
	c6.1,0,11.6,3.4,14.6,8.7c0.2,0.3,0.5,0.5,0.9,0.5C1380.7-7.9,1380.8-7.9,1380.9-8.1z"/>
<g class="st2">
	<path class="st3" d="M1396,633h-61.2c6.3-5.3,10.2-13.2,10.2-22.1c0-16-13-29-29-29c-1,0-2,0.1-3,0.2c-4.2-4.1-9.5-6.8-15.3-7.9
		c-0.4-0.6-0.8-1.1-1.2-1.7c2.6-0.5,5.1-0.6,7.8-0.3c0.4-16.4,14-29.7,30.5-29.7c12,0,22.8,7.1,27.8,17.8c9.9,0,19.3,5,24.9,13
		c2.8-0.8,5.7-1.3,8.7-1.3c16.8,0,30.5,13.6,30.5,30.5C1426.5,619.4,1412.7,633,1396,633z"/>
	<path class="st3" d="M1315.9,633h-65.1c-12.2,0-22.1-9.9-22.1-22.1s9.9-22.1,22.1-22.1c0.2,0,0.5,0,0.7,0
		c0.9-11.4,10.4-20.4,22.1-20.4c8.4,0,16.1,4.8,19.8,12.3c6.7,0.2,12.9,3.5,16.9,8.8c1.8-0.5,3.7-0.7,5.5-0.7
		c12.2,0,22.1,9.9,22.1,22.1S1328.1,633,1315.9,633z"/>
</g>
<path class="st0" d="M1366.8,365.6h-53.3c-7.4,0-14.4-2.6-19.6-7.3c-5.4-4.8-8.3-11.6-8.3-19c0-7.5,2.8-14,7.9-18.7
	c3.7-3.4,8.6-5.8,14.2-6.9c1.1-0.2,1.9-0.9,2.3-1.9c2-4.4,4.9-8.3,8.6-11.5c5.4-4.5,12.1-6.9,19.4-6.9c8.2,0,16.1,3.1,22,8.8
	c5.1,4.8,8.5,11.3,10.1,18.8c0.3,1.3,1.3,2.2,2.5,2.5c9.3,2.1,17.9,8.9,17.9,20.6c0,6.8-2.5,12.5-7.3,16.2
	C1379.2,363.8,1373.4,365.6,1366.8,365.6z"/>
</svg>
