<?xml version="1.0" encoding="UTF-8" standalone="no"?>
<!-- Created with Inkscape (http://www.inkscape.org/) -->

<svg
   version="1.1"
   id="svg2"
   width="400"
   height="400"
   viewBox="0 0 400 400"
   sodipodi:docname="glitch-logo.ai"
   xmlns:inkscape="http://www.inkscape.org/namespaces/inkscape"
   xmlns:sodipodi="http://sodipodi.sourceforge.net/DTD/sodipodi-0.dtd"
   xmlns="http://www.w3.org/2000/svg"
   xmlns:svg="http://www.w3.org/2000/svg">
  <defs
     id="defs6">
    <clipPath
       clipPathUnits="userSpaceOnUse"
       id="clipPath16">
      <path
         d="M 0,300 H 300 V 0 H 0 Z"
         id="path14" />
    </clipPath>
    <clipPath
       clipPathUnits="userSpaceOnUse"
       id="clipPath36">
      <path
         d="M 0,300 H 300 V 0 H 0 Z"
         id="path34" />
    </clipPath>
    <clipPath
       clipPathUnits="userSpaceOnUse"
       id="clipPath56">
      <path
         d="M 0,300 H 300 V 0 H 0 Z"
         id="path54" />
    </clipPath>
  </defs>
  <sodipodi:namedview
     id="namedview4"
     pagecolor="#ffffff"
     bordercolor="#000000"
     borderopacity="0.25"
     inkscape:showpageshadow="2"
     inkscape:pageopacity="0.0"
     inkscape:pagecheckerboard="0"
     inkscape:deskcolor="#d1d1d1" />
  <g
     id="g8"
     inkscape:groupmode="layer"
     inkscape:label="glitch-logo"
     transform="matrix(1.3333333,0,0,-1.3333333,0,400)">
    <g
       id="g10">
      <g
         id="g12"
         clip-path="url(#clipPath16)">
        <g
           id="g18"
           transform="translate(251.3532,130.5163)">
          <path
             d="m 0,0 c -2.11,-6.434 -5.432,-11.99 -9.967,-16.677 -2.949,-2.517 -6.09,-5.26 -9.412,-8.26 -3.323,-3 -7.666,-5.911 -13.051,-8.744 l 0.631,6.208 c 0.315,2.18 0.687,4.282 1.107,6.296 0.248,1.194 0.468,2.407 0.63,3.661 h 1.709 v 2 h -1.461 c 0.029,0.213 0.057,0.427 0.077,0.65 l 0.763,3.35 h 4.621 v 3 h -3.962 l 2.052,9.167 4.277,14.388 c 1.155,3.602 2.081,7.303 2.769,11.122 0.678,3.819 1.766,7.47 3.236,10.954 3.17,-2.072 5.537,-3.701 7.122,-4.905 C 1.69,24.908 4.64,14.171 0,0 m 33.647,41.484 h -4.7 c -0.63,1.38 -1.34,2.71 -2.14,4 h 2.84 v 3 h -4.88 c -1.3,1.73 -2.76,3.38 -4.37,4.94 -8.83,8.61 -17.06,14.75 -24.69,18.39 -4.63,2.21 -9.83,3.59 -15.57,4.14 -5.74,0.55 -11.82,-1.05 -18.23,-4.8 -3.87,-2.32 -6.52,-8.29 -7.95,-17.9 -0.99,-7.18 -5.14,-19.66 -12.43,-37.45 -3.09,-7.84 -5.69,-16.23 -7.79,-25.18 -1.32,-5.42 -2.37,-11.05 -3.14,-16.9 -0.78,-5.86 -1.16,-11.58 -1.16,-17.15 0,-5.58 1.43,-9.97 4.3,-13.18 2.87,-3.2 6.22,-5.38 10.03,-6.54 3.81,-1.16 7.68,-1.16 11.6,0 3.92,1.16 6.87,3.89 8.86,8.2 9.06,-1.66 18.45,0.39 28.17,6.13 4.53,2.54 8.78,5.69 12.76,9.45 3.55,3.35 6.81,6.96 9.78,10.85 h 5.71 v 3 h -3.21 c 1.13,1.75 2.2,3.511 3.21,5.304 v -0.304 h 5 v 3 h -3.41 c 0.78,1.37 1.52,2.76 2.22,4.16 2.38,4.75 4.2,9.61 5.47,14.58 1.27,4.97 2.13,9.83 2.57,14.58 0.9,8.48 0.13,16.04 -2.31,22.68 h 3.46 z"
             style="fill:#a6219d;fill-opacity:1;fill-rule:nonzero;stroke:none"
             id="path20" />
        </g>
        <g
           id="g22"
           transform="translate(242.49,135.63)">
          <path
             d="m 0,0 c -2.22,-6.52 -5.69,-12.16 -10.44,-16.9 -3.1,-2.55 -6.38,-5.33 -9.86,-8.37 -3.48,-3.04 -8.04,-5.99 -13.67,-8.87 l 0.66,6.3 c 0.33,2.21 0.72,4.33 1.16,6.38 0.44,2.04 0.77,4.17 1,6.38 l 3.64,15.74 4.47,14.58 c 1.22,3.65 2.18,7.4 2.9,11.27 0.72,3.86 1.85,7.56 3.4,11.1 3.32,-2.1 5.8,-3.76 7.46,-4.97 3.18,-2.13 5.71,-4.56 7.57,-7.27 h -2.78 v -3 h 4.52 c 0.31,-0.65 0.59,-1.32 0.83,-2 h -4.35 v -4 H 1.9 C 2.69,11.54 2.06,6.08 0,0 M 19.05,53.19 C 10.21,61.8 1.98,67.93 -5.64,71.58 c -4.64,2.21 -9.83,3.59 -15.57,4.14 -5.75,0.55 -11.82,-1.05 -18.23,-4.8 -3.4,-2.04 -5.86,-6.89 -7.37,-14.55 h -4.68 v -3 h 4.16 c -0.02,-0.11 -0.04,-0.23 -0.06,-0.35 -0.15,-1.09 -0.38,-2.31 -0.68,-3.65 h -7.42 v -3 h 6.69 c -1.95,-7.35 -5.62,-17.62 -11.02,-30.8 -3.09,-7.84 -5.69,-16.23 -7.79,-25.18 -1.03,-4.21 -1.89,-8.55 -2.58,-13.02 h -4.3 v -2 h 4 c -0.1,-0.62 -0.19,-1.25 -0.27,-1.88 -0.05,-0.37 -0.1,-0.75 -0.14,-1.12 h -5.59 v -4 h 5.15 c -0.39,-4.08 -0.58,-8.09 -0.58,-12.03 0,-5.58 1.44,-9.97 4.31,-13.18 2.87,-3.2 6.22,-5.38 10.03,-6.54 3.81,-1.16 7.67,-1.16 11.6,0 3.92,1.16 6.87,3.89 8.86,8.2 9.06,-1.66 18.45,0.39 28.17,6.13 4.53,2.54 8.78,5.69 12.76,9.45 3.97,3.75 7.59,7.84 10.85,12.26 3.26,4.41 6.07,9 8.45,13.75 2.38,4.75 4.2,9.61 5.47,14.58 1.27,4.97 2.12,9.83 2.57,14.58 1.65,15.69 -2.38,28.23 -12.1,37.62"
             style="fill:#05f2f2;fill-opacity:1;fill-rule:nonzero;stroke:none"
             id="path24" />
        </g>
        <g
           id="g26"
           transform="translate(246.65,132.58)">
          <path
             d="m 0,0 c -2.22,-6.52 -5.69,-12.16 -10.44,-16.9 -3.1,-2.55 -6.38,-5.33 -9.86,-8.37 -3.48,-3.04 -8.04,-5.99 -13.67,-8.87 l 0.66,6.3 c 0.33,2.21 0.72,4.33 1.16,6.38 0.13,0.62 0.26,1.25 0.37,1.88 h 3.13 v 2 h -2.81 c 0.12,0.8 0.22,1.6 0.31,2.43 l 0.37,1.57 h 5.13 v 3 h -4.43 l 2.57,11.16 4.47,14.62 c 1.22,3.66 2.18,7.42 2.9,11.31 0.72,3.87 1.85,7.58 3.4,11.13 3.32,-2.1 5.8,-3.77 7.46,-4.98 2.36,-1.59 4.36,-3.33 5.99,-5.24 h -3.36 v -2 h 4.9 c 0.67,-0.96 1.25,-1.96 1.76,-3 h -2.66 v -3 H 1.18 C 2.89,13.87 2.5,7.4 0,0 M 32.35,39.42 H 28.4 c -0.55,1.37 -1.18,2.71 -1.88,4 h 2.83 v 3 h -4.64 c -1.6,2.41 -3.49,4.67 -5.66,6.77 -8.84,8.61 -17.07,14.74 -24.69,18.39 -4.64,2.21 -9.83,3.59 -15.57,4.14 -5.75,0.55 -11.82,-1.05 -18.23,-4.8 -3.08,-1.85 -5.39,-6.02 -6.92,-12.5 h -6.29 v -2 h 5.85 c -0.22,-1.08 -0.41,-2.21 -0.59,-3.4 -0.03,-0.2 -0.06,-0.4 -0.09,-0.6 h -7.17 v -3 h 6.59 c -1.65,-7.46 -5.57,-18.74 -11.76,-33.85 -3.09,-7.84 -5.69,-16.23 -7.79,-25.18 -0.79,-3.25 -1.48,-6.57 -2.08,-9.97 h -4.96 v -2 h 4.62 c -0.22,-1.37 -0.43,-2.76 -0.62,-4.16 v 0.16 h -5 v -3 h 4.62 c -0.6,-5.01 -0.9,-9.92 -0.9,-14.71 0,-5.45 1.44,-9.73 4.31,-12.86 2.86,-3.12 6.21,-5.25 10.01,-6.38 3.8,-1.13 7.66,-1.13 11.58,0 3.91,1.13 6.86,3.79 8.84,8 9.05,-1.62 18.42,0.38 28.13,5.98 4.52,2.48 8.76,5.55 12.73,9.22 2.96,2.73 5.73,5.65 8.3,8.75 h 6.38 v 3 h -4.18 c 0.08,0.09 0.15,0.19 0.22,0.29 1.2,1.55 2.33,3.12 3.39,4.71 h 6.57 v 2 h -5.13 c 1.41,2.28 2.7,4.61 3.89,6.98 2.38,4.75 4.2,9.61 5.47,14.58 1.27,4.97 2.12,9.84 2.57,14.59 0.81,7.71 0.25,14.66 -1.69,20.85 h 2.89 z"
             style="fill:#f2f2f2;fill-opacity:1;fill-rule:nonzero;stroke:none"
             id="path28" />
        </g>
      </g>
    </g>
    <g
       id="g30">
      <g
         id="g32"
         clip-path="url(#clipPath36)">
        <g
           id="g38"
           transform="translate(94.96,132.56)">
          <path
             d="m 0,0 -1.99,-3.98 c -0.77,-1.55 -1.71,-3.26 -2.81,-5.13 -3.21,2.2 -6.8,3.45 -10.77,3.72 -3.98,0.28 -7.63,-0.47 -10.94,-2.23 -5.41,-1.77 -8.23,-5.42 -8.45,-10.94 h -0.17 c 0,-0.22 0.06,-0.39 0.17,-0.5 v -0.16 c 0,-0.33 0.11,-0.61 0.33,-0.83 0,-2.43 0.55,-5.69 1.66,-9.78 -6.85,2.87 -10.17,8.95 -9.94,18.23 0.11,4.08 0.82,8.42 2.15,13.01 1.33,4.58 2.93,9.03 4.81,13.34 1.87,4.3 3.83,8.25 5.88,11.84 2.04,3.59 3.48,5.94 4.31,7.05 0.47,0.63 1.17,1.56 2.09,2.8 h 3.71 v 3 h -1.5 c 0.05,0.08 0.11,0.16 0.17,0.24 0.98,1.34 2,2.59 3.05,3.76 h 3.28 v 2 h -1.38 c 0.64,0.62 1.28,1.22 1.93,1.78 3.31,-0.55 6.93,-0.47 10.85,0.25 3.92,0.72 7.54,2.18 10.85,4.39 C 12.04,37.61 9.61,20.32 0,0 m 52.04,60.44 h -4.07 c -1.15,9.88 -4.49,17.51 -10.02,22.9 -2.32,2.43 -5.39,4.37 -9.2,5.8 -3.81,1.44 -7.7,2.27 -11.68,2.49 C 13.09,91.85 9.36,91.35 5.88,90.14 2.4,88.92 -0.16,86.88 -1.82,84.01 l -2.98,-1 c -7.4,0.89 -16.68,-1.49 -27.84,-7.12 -10.94,-4.42 -20.05,-14.2 -27.34,-29.33 -6.19,-12.82 -9.89,-26.95 -11.1,-42.42 -2.55,-13.15 -2.1,-24.25 1.32,-33.3 3.43,-9.06 9.67,-15.36 18.73,-18.89 6.51,-2.54 12.7,-4.15 18.56,-4.81 3.75,-0.33 8.61,0.44 14.58,2.32 l 3.64,-7.29 c 1.22,-2.87 2.32,-5.44 3.32,-7.71 0.99,-2.26 1.6,-3.17 1.82,-2.73 1.21,-1.66 2.87,-2.87 4.97,-3.65 2.1,-0.77 4.2,-1.04 6.3,-0.82 4.97,0.33 8.06,2.59 9.28,6.79 0.44,2.43 0.16,5.14 -0.83,8.12 -0.45,1.44 -1.03,3.23 -1.74,5.39 -0.72,2.15 -1.08,3.5 -1.08,4.05 2.65,1.33 4.69,3.24 6.13,5.72 1.44,2.49 1.66,5.61 0.66,9.36 l -1.82,2.16 c 3.98,3.97 7.68,8.28 11.1,12.92 1.15,1.55 2.26,3.1 3.32,4.67 h 3.86 v 2 h -2.52 c 0.88,1.32 1.72,2.66 2.53,4 h 2.99 v 3 h -1.22 c 8.8,15.36 13.88,31.57 15.24,48.63 0.25,2.92 0.37,5.71 0.36,8.37 h 1.62 v 3 h -1.69 c -0.04,1.02 -0.1,2.02 -0.19,3 h 3.88 z"
             style="fill:#a6219d;fill-opacity:1;fill-rule:nonzero;stroke:none"
             id="path40" />
        </g>
        <g
           id="g42"
           transform="translate(86.16,139)">
          <path
             d="m 0,0 h -2.16 v -2 h 1.18 L -2.19,-4.42 C -2.28,-4.61 -2.38,-4.8 -2.49,-5 h -2.67 v -3 h 1.05 C -4.39,-8.5 -4.69,-9.02 -5,-9.55 c -3.21,2.2 -6.8,3.45 -10.77,3.72 -3.98,0.28 -7.63,-0.47 -10.94,-2.23 -5.41,-1.77 -8.34,-12.21 -8.12,-12.43 0,-2.43 0.55,-5.69 1.66,-9.78 -6.85,2.87 -10.17,8.95 -9.94,18.23 0.11,4.08 0.82,8.42 2.15,13.01 1.33,4.58 2.93,9.03 4.81,13.34 1.87,4.3 3.83,8.25 5.88,11.84 2.04,3.59 3.48,5.94 4.31,7.05 0.82,1.1 2.32,3.11 4.47,6.04 2.15,2.93 4.45,5.44 6.88,7.54 3.31,-0.55 6.93,-0.47 10.85,0.25 3.92,0.72 7.54,2.18 10.85,4.39 C 11.81,37.27 9.44,20.13 0,0 m 38.17,82.57 c -2.32,2.43 -5.39,4.36 -9.2,5.8 -3.81,1.43 -7.7,2.26 -11.68,2.48 C 13.31,91.07 9.59,90.58 6.11,89.36 2.63,88.14 0.06,86.1 -1.6,83.23 l -2.98,-0.99 c -7.4,0.88 -16.68,-1.49 -27.84,-7.13 C -40.37,71.9 -47.35,65.87 -53.37,57 h -2.79 v -2 h 1.47 c -0.81,-1.28 -1.6,-2.62 -2.37,-4 h -3.1 v -3 h 1.51 C -59.03,47.28 -59.4,46.53 -59.76,45.78 -65.95,32.97 -69.65,18.83 -70.86,3.36 -70.95,2.9 -71.03,2.45 -71.11,2 h -3.05 v -3 h 2.56 c -0.24,-1.6 -0.42,-3.16 -0.56,-4.68 V -5 h -5 v -3 h 4.82 c -0.52,-8.31 0.41,-15.62 2.8,-21.94 3.43,-9.06 9.67,-15.36 18.73,-18.89 6.51,-2.54 12.7,-4.14 18.56,-4.81 3.75,-0.33 8.61,0.45 14.58,2.32 l 3.64,-7.29 c 1.22,-2.87 2.32,-5.44 3.32,-7.7 0.99,-2.27 1.6,-3.18 1.82,-2.74 1.21,-1.65 2.87,-2.87 4.97,-3.64 2.1,-0.77 4.2,-1.05 6.3,-0.83 4.97,0.33 8.06,2.6 9.28,6.79 0.44,2.43 0.16,5.14 -0.83,8.12 -0.45,1.44 -1.03,3.23 -1.74,5.39 -0.72,2.15 -1.08,3.51 -1.08,4.06 2.65,1.32 4.69,3.23 6.13,5.71 1.44,2.49 1.66,5.61 0.66,9.37 l -1.82,2.15 c 3.98,3.98 7.68,8.29 11.1,12.93 14.36,19.32 22.43,40.09 24.2,62.3 1.54,18.11 -1.83,31.2 -10.11,39.27"
             style="fill:#05f2f2;fill-opacity:1;fill-rule:nonzero;stroke:none"
             id="path44" />
        </g>
        <g
           id="g46"
           transform="translate(92.39,140)">
          <path
             d="M 0,0 H -3.39 V -3 H -1.3 C -1.67,-3.81 -2.04,-4.62 -2.43,-5.44 L -2.71,-6 h -2.68 v -3 h 1.18 l -0.21,-0.42 c -0.77,-1.55 -1.71,-3.26 -2.81,-5.13 -3.21,2.2 -6.8,3.45 -10.77,3.72 -3.98,0.28 -7.63,-0.47 -10.94,-2.23 -5.41,-1.77 -8.23,-5.42 -8.45,-10.94 0,0 0.88,-7.18 1.99,-11.27 -6.85,2.87 -10.17,8.95 -9.94,18.23 0.11,4.08 0.82,8.42 2.15,13.01 1.33,4.58 2.93,9.03 4.81,13.34 1.87,4.3 3.83,8.25 5.88,11.84 2.04,3.59 3.48,5.94 4.31,7.05 0.22,0.29 0.49,0.66 0.8,1.08 V 29 h 6 v 3 h -3.98 c 0.5,0.67 1.05,1.42 1.65,2.24 0.44,0.61 0.9,1.19 1.35,1.76 h 4.98 v 2 h -3.28 c 1.23,1.38 2.51,2.64 3.83,3.78 3.31,-0.55 6.93,-0.47 10.85,0.25 3.92,0.72 7.54,2.18 10.85,4.39 C 9.18,33.46 7.56,17.98 0,0 m 49.61,53 h -3.49 c -0.94,10.69 -4.34,18.88 -10.18,24.57 -2.32,2.43 -5.39,4.36 -9.2,5.8 -3.81,1.43 -7.7,2.26 -11.68,2.48 C 11.08,86.07 7.36,85.58 3.88,84.36 0.4,83.14 -2.17,81.1 -3.83,78.23 l -2.98,-0.99 c -7.4,0.88 -16.68,-1.49 -27.84,-7.13 -6.69,-2.7 -12.69,-7.4 -18.01,-14.11 h -4.73 v -2 h 3.2 c -0.93,-1.27 -1.84,-2.6 -2.73,-4 h -4.47 v -3 h 2.67 c -1.13,-1.96 -2.22,-4.03 -3.27,-6.22 C -67.83,28.7 -71.45,15.44 -72.86,1 h -2.53 v -3 h 2.23 c -0.26,-1.36 -0.48,-2.69 -0.67,-4 h -4.56 v -3 h 4.17 c -1.13,-9.98 -0.31,-18.62 2.45,-25.94 3.43,-9.06 9.67,-15.36 18.73,-18.89 6.51,-2.54 12.7,-4.14 18.56,-4.81 3.75,-0.33 8.61,0.45 14.58,2.32 l 3.64,-7.29 c 1.22,-2.87 2.32,-5.44 3.32,-7.7 0.99,-2.27 1.6,-3.18 1.82,-2.74 1.21,-1.65 2.87,-2.87 4.97,-3.64 2.1,-0.77 4.2,-1.05 6.3,-0.83 4.97,0.33 8.06,2.6 9.28,6.79 0.44,2.43 0.16,5.14 -0.83,8.12 -0.45,1.44 -1.03,3.23 -1.74,5.39 -0.72,2.15 -1.08,3.51 -1.08,4.06 2.65,1.32 4.69,3.23 6.13,5.71 1.44,2.49 1.66,5.61 0.66,9.37 l -1.82,2.15 c 3.98,3.98 7.68,8.29 11.1,12.93 0.74,1 1.46,1.99 2.17,3 h 4.59 v 2 H 25.4 c 0.91,1.33 1.78,2.66 2.62,4 h 3.59 v 3 h -1.77 c 9.4,15.85 14.8,32.62 16.21,50.3 0.2,2.31 0.31,4.55 0.35,6.7 h 2.21 v 3 h -2.22 c -0.01,1.02 -0.05,2.02 -0.11,3 h 3.33 z"
             style="fill:#f2f2f2;fill-opacity:1;fill-rule:nonzero;stroke:none"
             id="path48" />
        </g>
      </g>
    </g>
    <g
       id="g50">
      <g
         id="g52"
         clip-path="url(#clipPath56)">
        <g
           id="g58"
           transform="translate(156.5693,68.7232)">
          <path
             d="m 0,0 c -2.597,-2.043 -5.193,-3.481 -7.788,-4.309 -2.597,-0.828 -4.337,-1.242 -5.22,-1.242 -0.885,0 -3.147,0.276 -6.793,0.828 h -0.166 c -0.111,0 -0.277,0.112 -0.497,0.332 -5.745,2.651 -8.616,6.242 -8.616,10.77 0,3.977 2.042,7.954 6.131,11.931 5.522,5.302 11.488,7.73 17.895,7.291 0.772,-0.113 2.595,-0.555 5.467,-1.327 C 0.745,23.943 0.966,23.777 1.077,23.777 7.374,18.915 8.974,13.338 5.882,7.042 4.557,4.39 2.594,2.044 0,0"
             style="fill:#a6219d;fill-opacity:1;fill-rule:nonzero;stroke:none"
             id="path60" />
        </g>
        <g
           id="g62"
           transform="translate(158.45,79.76)">
          <path
             d="m 0,0 c -1.32,-2.65 -3.29,-4.99 -5.88,-7.04 -2.6,-2.04 -5.19,-3.48 -7.79,-4.31 -2.6,-0.82 -4.34,-1.24 -5.22,-1.24 -0.88,0 -3.15,0.28 -6.79,0.83 h -0.17 c -0.11,0 -0.27,0.11 -0.49,0.33 -5.75,2.65 -8.62,6.24 -8.62,10.77 0,1.63 0.34,3.27 1.04,4.9 h -2.53 v 4 h 4.9 c 0.77,1 1.66,2 2.69,3 h -1.59 v 3 h 5.19 c 4.5,3.23 9.28,4.67 14.33,4.32 0.77,-0.11 2.59,-0.55 5.46,-1.32 0.33,-0.33 0.56,-0.5 0.67,-0.5 C 1.49,11.88 3.09,6.3 0,0"
             style="fill:#05f2f2;fill-opacity:1;fill-rule:nonzero;stroke:none"
             id="path64" />
        </g>
        <g
           id="g66"
           transform="translate(160.45,77.76)">
          <path
             d="m 0,0 c -1.32,-2.65 -3.29,-4.99 -5.88,-7.04 -2.6,-2.04 -5.19,-3.48 -7.79,-4.31 -2.6,-0.82 -4.34,-1.24 -5.22,-1.24 -0.88,0 -3.15,0.28 -6.79,0.83 h -0.17 c -0.11,0 -0.27,0.11 -0.49,0.33 -5.75,2.65 -8.62,6.24 -8.62,10.77 0,2.3 0.68,4.6 2.05,6.9 h -1.54 v 3 h 3.72 c 0.57,0.68 1.21,1.35 1.9,2.03 0.74,0.71 1.49,1.37 2.25,1.97 h -2.87 v 2 h 5.68 c 4.06,2.52 8.34,3.63 12.84,3.32 0.77,-0.11 2.59,-0.55 5.46,-1.32 0.33,-0.33 0.56,-0.5 0.67,-0.5 C 1.49,11.88 3.09,6.3 0,0"
             style="fill:#f2f2f2;fill-opacity:1;fill-rule:nonzero;stroke:none"
             id="path68" />
        </g>
      </g>
    </g>
  </g>
</svg>
