<?xml version="1.0" encoding="utf-8"?>
<!-- Generator: Adobe Illustrator 27.2.0, SVG Export Plug-In . SVG Version: 6.00 Build 0)  -->
<svg version="1.1" xmlns="http://www.w3.org/2000/svg" xmlns:xlink="http://www.w3.org/1999/xlink" x="0px" y="0px"
	 viewBox="0 0 300 300" style="enable-background:new 0 0 300 300;" xml:space="preserve">
<style type="text/css">
	
		.st0{clip-path:url(#SVGID_00000165949204748695158940000001992019665973072031_);fill:url(#SVGID_00000022542947774330821390000016820090519996765346_);}
</style>
<g id="Camada_1">
</g>
<g id="Camada_2">
	<g>
		<defs>
			<path id="SVGID_1_" d="M246.5,52.4h-53.2v9.7h53.2c24.1,0,43.5,32.5,43.5,72.6s-19.5,72.6-43.5,72.6H203v-9.7h41.2
				c0.7,0.1,1.5,0.1,2.2,0.1c18.9,0,34.2-28.2,34.2-63s-15.3-63-34.2-63c-0.7,0-1.5,0.1-2.2,0.1h-22v9.7h24.2
				c13.4,0,24.2,23.8,24.2,53.2s-10.8,53.2-24.2,53.2h-53.2v29h53.2c29.4,0,53.2-36.8,53.2-82.2S275.9,52.4,246.5,52.4z
				 M144.2,188.4c12.5-14.4,20-33.2,20-53.7c0-45.4-36.8-82.2-82.2-82.2C36.5,52.4-0.3,89.2-0.3,134.6s36.8,82.2,82.3,82.2
				c21.3,0,40.8-8.1,55.4-21.5l15,21.5h11.8L144.2,188.4z M82,207.2c-40.1,0-72.6-32.5-72.6-72.6c0-40,32.5-72.5,72.6-72.5
				c40,0,72.6,32.5,72.6,72.6C154.5,174.7,122,207.2,82,207.2z M144.4,127.1L144.4,127.1c-0.1-1-0.3-2-0.4-2.9
				c-0.2-1.5-0.5-2.9-0.9-4.3c-0.3-1.4-0.7-2.8-1.2-4.2c-0.4-1.4-0.9-2.7-1.4-4.1c-0.4-1-0.8-1.9-1.2-2.8s-0.9-1.8-1.3-2.7
				c-0.2-0.5-0.5-0.9-0.7-1.4c-0.5-0.9-1-1.8-1.5-2.6l0,0c-0.5-0.9-1.1-1.7-1.6-2.5l0,0c-0.6-0.8-1.1-1.7-1.8-2.5
				c-0.6-0.8-1.2-1.6-1.9-2.4l0,0c-0.6-0.8-1.3-1.5-2-2.3c-0.7-0.7-1.4-1.5-2.1-2.2c-0.4-0.4-0.7-0.7-1.1-1.1
				c-0.7-0.7-1.4-1.3-2.2-2c-2.7-2.3-5.5-4.4-8.6-6.2c-0.9-0.5-1.7-1-2.6-1.5s-1.8-1-2.7-1.4c-0.9-0.4-1.8-0.9-2.8-1.3
				c-2.3-1-4.8-1.9-7.3-2.6c-2-0.6-4-1-6.1-1.4s-4.2-0.6-6.3-0.8c-0.8-0.1-1.6-0.1-2.4-0.1s-1.6,0-2.4,0l0,0
				C47.1,71.8,19,99.9,19,134.7l0,0c0,11.9,3.3,23.1,9.1,32.6c0.8,1.3,1.6,2.6,2.5,3.8s1.8,2.4,2.8,3.6c1.3,1.6,2.6,3,4.1,4.5
				c0.7,0.7,1.4,1.4,2.2,2.1c0.8,0.7,1.5,1.3,2.3,2c1.5,1.3,3.2,2.5,4.8,3.6c1.2,0.8,2.5,1.6,3.9,2.4l0,0c3.5,2,7.2,3.7,11.1,5l0,0
				c1.6,0.5,3.2,1,4.8,1.4c3.3,0.8,6.6,1.4,10.1,1.7l0,0c1.7,0.1,3.5,0.2,5.2,0.2c3.3,0,6.6-0.3,9.8-0.8c0.5-0.1,0.9-0.2,1.4-0.2
				c0.5-0.1,1-0.2,1.5-0.3s1-0.2,1.5-0.3c1-0.2,2-0.5,3-0.8c0.5-0.1,1-0.3,1.5-0.5s1-0.3,1.5-0.5c18.5-6.3,33.1-20.9,39.4-39.4
				c0.6-1.7,1.1-3.3,1.5-5.1c0.8-3.2,1.3-6.4,1.6-9.8c0-0.1,0-0.1,0-0.2c0-0.5,0.1-0.9,0.1-1.3c0.1-1.3,0.1-2.5,0.1-3.8
				C144.9,132.1,144.7,129.6,144.4,127.1z M135.1,136.8L135.1,136.8c0,1.2-0.1,2.3-0.2,3.3c0,0.4-0.1,0.7-0.1,1.1
				c-0.2,1.4-0.4,2.7-0.7,4c-0.1,0.4-0.2,0.9-0.3,1.3c-0.2,0.7-0.3,1.4-0.5,2.1c-0.2,0.7-0.4,1.4-0.6,2c-0.1,0.3-0.2,0.7-0.3,1
				c-5.4,16.1-18.3,28.7-34.6,33.8c-5,1.5-10.3,2.4-15.8,2.4c-29.4,0.1-53.3-23.7-53.3-53.2l0,0c0-29.4,23.8-53.2,53.2-53.2
				s53.2,23.8,53.2,53.2C135.2,135.4,135.2,136.1,135.1,136.8z M228.7,84.8c-0.5,1.6,0.1,3.4,1.7,4.3c0.6,0.3,0.7,0.7,0.7,1.3
				c0,4.7,0,9.3,0,14c0,0.5,0.1,0.9,0.5,1.3c2.7,2.7,5.4,5.4,8.1,8.1c0.4,0.4,0.6,0.7,0.6,1.3c0,6.6,0,13.1,0,19.7v2.2h-4.8v-1
				c0-5,0-10,0-15c0-0.6-0.2-1.1-0.6-1.5c-2.7-2.6-5.4-5.3-8-8c-0.3-0.3-0.5-0.8-0.5-1.2c0-4.4,0-8.7,0-13.1c0-0.5,0.1-0.8,0.6-1.1
				c1.6-0.8,2.3-2.6,1.9-4.3c-0.4-1.7-1.9-2.9-3.7-2.9c-1.7,0-3.2,1.1-3.7,2.7c-0.5,1.7,0.2,3.5,1.7,4.4c0.5,0.3,0.6,0.6,0.6,1.1
				c0,4.7,0,9.4,0,14.1c0,0.5,0.1,0.9,0.5,1.3c2.7,2.7,5.4,5.4,8.1,8.1c0.3,0.3,0.5,0.8,0.5,1.2c0,4.8,0,9.5,0,14.3
				c0,0.3,0,0.5,0,0.8h-5v-1c0-2.6,0-5.2,0-7.9c0-0.8-0.2-1.3-0.7-1.8c-2.7-2.6-5.3-5.2-7.9-7.9c-0.3-0.3-0.5-0.8-0.5-1.2
				c0-4.4,0-8.7,0-13.1c0-0.5,0.1-0.8,0.6-1c1.6-0.8,2.3-2.6,1.9-4.3c-0.4-1.6-1.9-2.8-3.6-2.9c-1.7-0.1-3.3,1.1-3.8,2.7
				c-0.5,1.7,0.2,3.5,1.7,4.4c0.5,0.3,0.6,0.6,0.6,1.1c0,4.7,0,9.4,0,14c0,0.5,0.1,0.9,0.5,1.3c2.7,2.7,5.4,5.4,8.1,8.1
				c0.3,0.3,0.5,0.8,0.5,1.2c0,2.8,0,5.5,0,8.3c0,7.9-5.6,14.9-13.3,16.6c-1.2,0.3-2.5,0.4-3.8,0.6v17.4h4.6c0-0.3,0.1-0.6,0.1-0.8
				c0.2-1.9,0.4-3.7,0.6-5.6c0-0.5,0.3-0.7,0.7-0.8c0.8-0.2,1.5-0.3,2.3-0.6c0.5-0.2,0.8-0.1,1.1,0.4c1.1,1.5,2.2,3,3.3,4.5
				c0.2,0.2,0.3,0.4,0.5,0.6c2.7-1.6,5.4-3.1,8.1-4.7c-0.9-2-1.7-4-2.6-5.9c-0.2-0.5-0.2-0.8,0.3-1.1c0.5-0.5,1.1-0.9,1.5-1.5
				s0.8-0.6,1.5-0.3c1.9,0.9,3.8,1.7,5.7,2.5c1.6-2.7,3.1-5.4,4.7-8.1c-0.2-0.2-0.4-0.3-0.6-0.5c-1.5-1.1-3-2.2-4.6-3.3
				c-0.4-0.3-0.5-0.5-0.4-1c0.3-0.8,0.5-1.6,0.7-2.5c0.1-0.4,0.3-0.6,0.7-0.6c1.9-0.2,3.7-0.5,5.6-0.6c0.8,0,0.9-0.4,0.9-1.1
				c0-8.9,0-17.9,0-26.8c0-0.6-0.2-0.9-0.6-1.3c-2.7-2.7-5.4-5.4-8.1-8.1c-0.3-0.3-0.5-0.8-0.5-1.2c0-4.3,0-8.6,0-12.9
				c0-0.6,0.1-0.9,0.7-1.2c1.6-0.8,2.3-2.6,1.8-4.3c-0.4-1.6-1.9-2.8-3.6-2.8C230.8,82,229.2,83.1,228.7,84.8z M223.9,92.8
				c0-0.7,0.5-1.3,1.2-1.3s1.2,0.5,1.3,1.2c0,0.7-0.5,1.3-1.2,1.3C224.5,94.1,223.9,93.5,223.9,92.8z M216.2,99.7
				c0-0.7,0.6-1.3,1.3-1.3s1.2,0.6,1.2,1.3c0,0.7-0.6,1.3-1.3,1.3C216.8,101,216.2,100.4,216.2,99.7z M233.7,85.9
				c0,0.7-0.6,1.2-1.3,1.2s-1.3-0.6-1.2-1.3c0-0.7,0.6-1.2,1.3-1.2C233.1,84.6,233.7,85.2,233.7,85.9z M203.2,103.3
				c-0.2,1.8-0.4,3.7-0.6,5.5c0,0.4-0.2,0.6-0.6,0.7c-0.8,0.2-1.7,0.4-2.5,0.7c-0.5,0.2-0.7,0-1-0.4c-1.1-1.5-2.2-3.1-3.3-4.6
				c-0.2-0.2-0.3-0.4-0.5-0.6c-2.7,1.6-5.4,3.1-8.1,4.7c0.9,2,1.8,4,2.6,5.9c0.2,0.4,0.1,0.7-0.2,1c-0.6,0.6-1.2,1.2-1.8,1.8
				c-0.3,0.4-0.6,0.4-1,0.2c-1.2-0.6-2.4-1.1-3.6-1.6c-0.8-0.3-1.6-0.7-2.4-1c-1.6,2.7-3.1,5.4-4.7,8.1c0.3,0.2,0.5,0.4,0.7,0.5
				c1.5,1.1,3,2.2,4.5,3.2c0.5,0.3,0.5,0.6,0.4,1.1c-0.3,0.7-0.5,1.5-0.6,2.3c-0.1,0.5-0.3,0.7-0.8,0.8c-1.9,0.2-3.8,0.4-5.6,0.6
				c-0.7,0.1-0.8,0.3-0.8,0.9c0,9,0,17.9,0,26.9c0,0.4,0.2,0.9,0.5,1.2c2.7,2.7,5.4,5.5,8.1,8.2c0.3,0.3,0.5,0.8,0.5,1.2
				c0,4.3,0,8.7,0,13c0,0.6-0.2,0.9-0.7,1.2c-1.6,0.8-2.3,2.6-1.9,4.3c0.4,1.6,1.9,2.8,3.6,2.9c1.7,0,3.3-1.1,3.8-2.7
				c0.5-1.7-0.2-3.5-1.7-4.4c-0.5-0.3-0.6-0.6-0.6-1.1c0-4.7,0-9.4,0-14.1c0-0.5-0.1-0.9-0.5-1.3c-2.7-2.7-5.5-5.4-8.2-8.2
				c-0.3-0.3-0.5-0.7-0.5-1.1c0-7.1,0-14.1,0-21.2c0-0.2,0-0.4,0-0.7h4.7v1c0,5,0,10,0,15c0,0.5,0.2,0.9,0.5,1.3
				c2.7,2.7,5.4,5.4,8.1,8c0.4,0.4,0.5,0.7,0.5,1.2c0,4.4,0,8.7,0,13.1c0,0.5-0.1,0.8-0.6,1c-1.6,0.8-2.3,2.6-1.9,4.3
				c0.4,1.7,1.9,2.9,3.7,2.9c1.7,0,3.2-1.1,3.7-2.8s-0.2-3.5-1.7-4.4c-0.5-0.3-0.6-0.6-0.6-1.1c0-4.6,0-9.2,0-13.8
				c0-0.8-0.2-1.4-0.8-1.9c-2.6-2.6-5.2-5.2-7.8-7.8c-0.4-0.4-0.5-0.7-0.5-1.3c0-4.7,0-9.4,0-14.1c0-0.3,0-0.5,0-0.8
				c1.4,0,2.8,0,4.2,0c0.7,0,0.9,0.1,0.9,0.9c0,2.7,0,5.5,0,8.2c0,0.4,0.2,0.9,0.5,1.2c2.6,2.7,5.3,5.4,8,8c0.5,0.4,0.6,0.9,0.6,1.5
				c0,4.3,0,8.5,0,12.8c0,0.6-0.1,0.9-0.7,1.2c-1.6,0.8-2.3,2.5-1.9,4.2c0.4,1.7,1.9,2.9,3.7,3c1.7,0,3.3-1.1,3.8-2.7
				c0.5-1.7-0.2-3.5-1.7-4.4c-0.5-0.3-0.6-0.6-0.6-1.1c0-4.7,0-9.4,0-14.1c0-0.5-0.2-0.9-0.5-1.3c-2.7-2.7-5.4-5.4-8.1-8.1
				c-0.3-0.3-0.5-0.7-0.5-1.1c0-2.8-0.1-5.6,0-8.5c0.1-8.1,5.9-15,13.8-16.6c1.1-0.2,2.2-0.3,3.3-0.4v-17.4h-4.6
				C203.3,102.7,203.3,103,203.2,103.3z M184.9,188c0,0.7-0.6,1.2-1.3,1.2s-1.2-0.6-1.2-1.3s0.6-1.2,1.3-1.2
				C184.4,186.8,185,187.3,184.9,188z M192.2,181.1c0,0.7-0.6,1.3-1.3,1.3s-1.2-0.6-1.2-1.3s0.6-1.2,1.3-1.2
				C191.7,179.8,192.2,180.4,192.2,181.1z M199.9,174.1c0,0.7-0.6,1.2-1.2,1.3c-0.7,0-1.3-0.6-1.3-1.3s0.6-1.3,1.3-1.3
				C199.4,172.9,199.9,173.5,199.9,174.1z M198.6,137c0,5.2,4.2,9.4,9.4,9.4s9.4-4.2,9.4-9.4s-4.2-9.4-9.4-9.4
				C202.8,127.6,198.6,131.8,198.6,137z M211.1,136.9c0,1.7-1.3,3-3,3s-3-1.3-3-3c0-1.6,1.3-3,3-3
				C209.6,133.9,211,135.3,211.1,136.9z M82,124.3c-5.7,0-10.4,4.7-10.4,10.4s4.7,10.4,10.4,10.4c5.7,0,10.4-4.7,10.4-10.4
				C92.4,128.9,87.7,124.3,82,124.3z M82,140.3c-3.1,0-5.6-2.5-5.6-5.6s2.5-5.6,5.6-5.6s5.6,2.5,5.6,5.6
				C87.6,137.7,85.1,140.3,82,140.3z M82,124.3c-5.7,0-10.4,4.7-10.4,10.4s4.7,10.4,10.4,10.4c5.7,0,10.4-4.7,10.4-10.4
				C92.4,128.9,87.7,124.3,82,124.3z M82,140.3c-3.1,0-5.6-2.5-5.6-5.6s2.5-5.6,5.6-5.6s5.6,2.5,5.6,5.6
				C87.6,137.7,85.1,140.3,82,140.3z M82,124.3c-5.7,0-10.4,4.7-10.4,10.4s4.7,10.4,10.4,10.4c5.7,0,10.4-4.7,10.4-10.4
				C92.4,128.9,87.7,124.3,82,124.3z M82,140.3c-3.1,0-5.6-2.5-5.6-5.6s2.5-5.6,5.6-5.6s5.6,2.5,5.6,5.6
				C87.6,137.7,85.1,140.3,82,140.3z M82,112.2c-12.4,0-22.5,10.1-22.5,22.5s10.1,22.5,22.5,22.5s22.5-10.1,22.5-22.5
				C104.5,122.2,94.4,112.2,82,112.2z M95.6,139.6l-0.8,0.5c-0.4,0.2-0.7,0.5-0.9,0.9c-0.1,0.2-0.2,0.4-0.3,0.6
				c-0.2,0.4-0.4,0.8-0.4,1.3v1.1c-2.1,2.5-5,4.4-8.4,5l-1.3-0.7c-0.4-0.2-0.8-0.3-1.2-0.3h-0.8c-0.4,0-0.8,0.1-1.2,0.3L79,149
				c-3.4-0.7-6.3-2.5-8.4-5v-1c0-0.5-0.1-0.9-0.4-1.3c-0.1-0.2-0.2-0.4-0.3-0.6c-0.2-0.4-0.5-0.7-0.9-0.9l-0.8-0.5
				c-0.5-1.5-0.9-3.2-0.9-4.9s0.3-3.4,0.9-4.9l0.8-0.5c0.4-0.2,0.7-0.5,0.9-0.9c0.1-0.2,0.2-0.4,0.3-0.6c0.2-0.4,0.4-0.8,0.4-1.3
				v-1.1c2.1-2.5,5-4.4,8.4-5l1.3,0.7c0.4,0.2,0.8,0.3,1.2,0.3h0.7c0.4,0,0.9-0.1,1.2-0.3l1.3-0.7c3.3,0.7,6.3,2.5,8.4,5v1.1
				c0,0.5,0.1,0.9,0.4,1.3c0.1,0.2,0.2,0.4,0.3,0.6c0.2,0.4,0.5,0.7,0.9,0.9l0.8,0.5c0.6,1.5,0.9,3.2,0.9,4.9
				C96.5,136.4,96.2,138,95.6,139.6z"/>
		</defs>
		<clipPath id="SVGID_00000049918462589245719970000015067017826246259376_">
			<use xlink:href="#SVGID_1_"  style="overflow:visible;"/>
		</clipPath>
		
			<linearGradient id="SVGID_00000155825831007831059950000004571955844754128034_" gradientUnits="userSpaceOnUse" x1="33.5393" y1="250.772" x2="265.6894" y2="18.6219">
			<stop  offset="0" style="stop-color:#BAE6FD"/>
			<stop  offset="0.3492" style="stop-color:#38BDF8"/>
			<stop  offset="0.6425" style="stop-color:#0284C7"/>
			<stop  offset="1" style="stop-color:#075985"/>
		</linearGradient>
		
			<rect x="-0.3" y="52.5" style="clip-path:url(#SVGID_00000049918462589245719970000015067017826246259376_);fill:url(#SVGID_00000155825831007831059950000004571955844754128034_);" width="299.9" height="164.4"/>
	</g>
</g>
</svg>
