<?xml version="1.0" encoding="utf-8"?>
<!-- Generator: Adobe Illustrator 27.2.0, SVG Export Plug-In . SVG Version: 6.00 Build 0)  -->
<svg version="1.1" id="Camada_1" xmlns="http://www.w3.org/2000/svg" xmlns:xlink="http://www.w3.org/1999/xlink" x="0px" y="0px"
	 viewBox="0 0 300 300" style="enable-background:new 0 0 300 300;" xml:space="preserve">
<style type="text/css">
	.st0{fill:#0284C7;}
</style>
<g>
	<path class="st0" d="M206.1,7.9c-1.4,4.4,0.3,9.3,4.6,11.7c1.6,0.8,1.9,1.9,1.9,3.5c0,12.8,0,25.3,0,38.1c0,1.4,0.3,2.5,1.4,3.5
		c7.4,7.4,14.7,14.7,22.1,22.1c1.1,1.1,1.6,1.9,1.6,3.5c0,18,0,35.7,0,53.7v6h-13.1v-2.7c0-13.6,0-27.2,0-40.9c0-1.6-0.5-3-1.6-4.1
		c-7.4-7.1-14.7-14.4-21.8-21.8c-0.8-0.8-1.4-2.2-1.4-3.3c0-12,0-23.7,0-35.7c0-1.4,0.3-2.2,1.6-3c4.4-2.2,6.3-7.1,5.2-11.7
		c-1.1-4.6-5.2-7.9-10.1-7.9c-4.6,0-8.7,3-10.1,7.4c-1.4,4.6,0.5,9.5,4.6,12c1.4,0.8,1.6,1.6,1.6,3c0,12.8,0,25.6,0,38.4
		c0,1.4,0.3,2.5,1.4,3.5c7.4,7.4,14.7,14.7,22.1,22.1c0.8,0.8,1.4,2.2,1.4,3.3c0,13.1,0,25.9,0,39c0,0.8,0,1.4,0,2.2H204v-2.7
		c0-7.1,0-14.2,0-21.5c0-2.2-0.5-3.5-1.9-4.9c-7.4-7.1-14.4-14.2-21.5-21.5c-0.8-0.8-1.4-2.2-1.4-3.3c0-12,0-23.7,0-35.7
		c0-1.4,0.3-2.2,1.6-2.7c4.4-2.2,6.3-7.1,5.2-11.7c-1.1-4.4-5.2-7.6-9.8-7.9c-4.6-0.3-9,3-10.4,7.4c-1.4,4.6,0.5,9.5,4.6,12
		c1.4,0.8,1.6,1.6,1.6,3c0,12.8,0,25.6,0,38.1c0,1.4,0.3,2.5,1.4,3.5c7.4,7.4,14.7,14.7,22.1,22.1c0.8,0.8,1.4,2.2,1.4,3.3
		c0,7.6,0,15,0,22.6c0,21.5-15.3,40.6-36.2,45.2c-3.3,0.8-6.8,1.1-10.4,1.6v47.4h12.5c0-0.8,0.3-1.6,0.3-2.2
		c0.5-5.2,1.1-10.1,1.6-15.3c0-1.4,0.8-1.9,1.9-2.2c2.2-0.5,4.1-0.8,6.3-1.6c1.4-0.5,2.2-0.3,3,1.1c3,4.1,6,8.2,9,12.3
		c0.5,0.5,0.8,1.1,1.4,1.6c7.4-4.4,14.7-8.4,22.1-12.8c-2.5-5.4-4.6-10.9-7.1-16.1c-0.5-1.4-0.5-2.2,0.8-3c1.4-1.4,3-2.5,4.1-4.1
		c1.1-1.6,2.2-1.6,4.1-0.8c5.2,2.5,10.4,4.6,15.5,6.8c4.4-7.4,8.4-14.7,12.8-22.1c-0.5-0.5-1.1-0.8-1.6-1.4c-4.1-3-8.2-6-12.5-9
		c-1.1-0.8-1.4-1.4-1.1-2.7c0.8-2.2,1.4-4.4,1.9-6.8c0.3-1.1,0.8-1.6,1.9-1.6c5.2-0.5,10.1-1.4,15.3-1.6c2.2,0,2.5-1.1,2.5-3
		c0-24.3,0-48.8,0-73c0-1.6-0.5-2.5-1.6-3.5c-7.4-7.4-14.7-14.7-22.1-22.1c-0.8-0.8-1.4-2.2-1.4-3.3c0-11.7,0-23.4,0-35.1
		c0-1.6,0.3-2.5,1.9-3.3c4.4-2.2,6.3-7.1,4.9-11.7c-1.1-4.4-5.2-7.6-9.8-7.6C211.9,0.3,207.5,3.3,206.1,7.9z M193.1,29.7
		c0-1.9,1.4-3.5,3.3-3.5s3.3,1.4,3.5,3.3c0,1.9-1.4,3.5-3.3,3.5C194.7,33.2,193.1,31.6,193.1,29.7z M172.1,48.5
		c0-1.9,1.6-3.5,3.5-3.5s3.3,1.6,3.3,3.5c0,1.9-1.6,3.5-3.5,3.5C173.7,52,172.1,50.4,172.1,48.5z M219.8,10.9c0,1.9-1.6,3.3-3.5,3.3
		s-3.5-1.6-3.3-3.5c0-1.9,1.6-3.3,3.5-3.3C218.1,7.4,219.8,9,219.8,10.9z"/>
	<path class="st0" d="M136.6,58.3c-0.5,4.9-1.1,10.1-1.6,15c0,1.1-0.5,1.6-1.6,1.9c-2.2,0.5-4.6,1.1-6.8,1.9c-1.4,0.5-1.9,0-2.7-1.1
		c-3-4.1-6-8.4-9-12.5c-0.5-0.5-0.8-1.1-1.4-1.6c-7.4,4.4-14.7,8.4-22.1,12.8c2.5,5.4,4.9,10.9,7.1,16.1c0.5,1.1,0.3,1.9-0.5,2.7
		c-1.6,1.6-3.3,3.3-4.9,4.9c-0.8,1.1-1.6,1.1-2.7,0.5c-3.3-1.6-6.5-3-9.8-4.4c-2.2-0.8-4.4-1.9-6.5-2.7c-4.4,7.4-8.4,14.7-12.8,22.1
		c0.8,0.5,1.4,1.1,1.9,1.4c4.1,3,8.2,6,12.3,8.7c1.4,0.8,1.4,1.6,1.1,3c-0.8,1.9-1.4,4.1-1.6,6.3c-0.3,1.4-0.8,1.9-2.2,2.2
		c-5.2,0.5-10.4,1.1-15.3,1.6c-1.9,0.3-2.2,0.8-2.2,2.5c0,24.5,0,48.8,0,73.3c0,1.1,0.5,2.5,1.4,3.3c7.4,7.4,14.7,15,22.1,22.3
		c0.8,0.8,1.4,2.2,1.4,3.3c0,11.7,0,23.7,0,35.4c0,1.6-0.5,2.5-1.9,3.3c-4.4,2.2-6.3,7.1-5.2,11.7c1.1,4.4,5.2,7.6,9.8,7.9
		c4.6,0,9-3,10.4-7.4c1.4-4.6-0.5-9.5-4.6-12c-1.4-0.8-1.6-1.6-1.6-3c0-12.8,0-25.6,0-38.4c0-1.4-0.3-2.5-1.4-3.5
		c-7.4-7.4-15-14.7-22.3-22.3c-0.8-0.8-1.4-1.9-1.4-3c0-19.3,0-38.4,0-57.8c0-0.5,0-1.1,0-1.9h12.8v2.7c0,13.6,0,27.2,0,40.9
		c0,1.4,0.5,2.5,1.4,3.5c7.4,7.4,14.7,14.7,22.1,21.8c1.1,1.1,1.4,1.9,1.4,3.3c0,12,0,23.7,0,35.7c0,1.4-0.3,2.2-1.6,2.7
		c-4.4,2.2-6.3,7.1-5.2,11.7c1.1,4.6,5.2,7.9,10.1,7.9c4.6,0,8.7-3,10.1-7.6s-0.5-9.5-4.6-12c-1.4-0.8-1.6-1.6-1.6-3
		c0-12.5,0-25.1,0-37.6c0-2.2-0.5-3.8-2.2-5.2c-7.1-7.1-14.2-14.2-21.3-21.3c-1.1-1.1-1.4-1.9-1.4-3.5c0-12.8,0-25.6,0-38.4
		c0-0.8,0-1.4,0-2.2c3.8,0,7.6,0,11.4,0c1.9,0,2.5,0.3,2.5,2.5c0,7.4,0,15,0,22.3c0,1.1,0.5,2.5,1.4,3.3
		c7.1,7.4,14.4,14.7,21.8,21.8c1.4,1.1,1.6,2.5,1.6,4.1c0,11.7,0,23.2,0,34.9c0,1.6-0.3,2.5-1.9,3.3c-4.4,2.2-6.3,6.8-5.2,11.4
		c1.1,4.6,5.2,7.9,10.1,8.2c4.6,0,9-3,10.4-7.4c1.4-4.6-0.5-9.5-4.6-12c-1.4-0.8-1.6-1.6-1.6-3c0-12.8,0-25.6,0-38.4
		c0-1.4-0.5-2.5-1.4-3.5c-7.4-7.4-14.7-14.7-22.1-22.1c-0.8-0.8-1.4-1.9-1.4-3c0-7.6-0.3-15.3,0-23.2c0.3-22.1,16.1-40.9,37.6-45.2
		c3-0.5,6-0.8,9-1.1V55.6h-12.5C136.9,56.7,136.9,57.5,136.6,58.3z M86.8,289.1c0,1.9-1.6,3.3-3.5,3.3s-3.3-1.6-3.3-3.5
		s1.6-3.3,3.5-3.3C85.4,285.8,87.1,287.2,86.8,289.1z M106.7,270.3c0,1.9-1.6,3.5-3.5,3.5s-3.3-1.6-3.3-3.5s1.6-3.3,3.5-3.3
		C105.3,266.8,106.7,268.4,106.7,270.3z M127.7,251.2c0,1.9-1.6,3.3-3.3,3.5c-1.9,0-3.5-1.6-3.5-3.5s1.6-3.5,3.5-3.5
		C126.3,248,127.7,249.6,127.7,251.2z"/>
	<path class="st0" d="M124.1,150.1c0,14.2,11.4,25.6,25.6,25.6s25.6-11.4,25.6-25.6s-11.4-25.6-25.6-25.6
		C135.6,124.5,124.1,136,124.1,150.1z M158.2,149.9c0,4.6-3.5,8.2-8.2,8.2s-8.2-3.5-8.2-8.2c0-4.4,3.5-8.2,8.2-8.2
		C154.1,141.7,157.9,145.5,158.2,149.9z"/>
</g>
</svg>
